# xmcd CD database file
#
# Track frame offsets:
#	150
#	19148
#	37970
#	57242
#	73037
#	102827
#	120937
#	133592
#	155058
#	169799
#	190168
#	210885
#
# Disc length: 3151 seconds
#
# Revision: 0
# Processed by: cddbd v1.5.2PL0 Copyright (c) Steve Scherf et al.
# Submitted via: CDex 2.00
#
DISCID=9a0c4d0c
DTITLE=Steve Plews Quartet - A Step Too Far
DYEAR=2014
DGENRE=Jazz
TTITLE0=How it is
TTITLE1=The King of Time
TTITLE2=The Expelled
TTITLE3=The Capital of the Ruins
TTITLE4=Enough
TTITLE5=Wind is Song
TTITLE6=Lessness
TTITLE7=Sounds
TTITLE8=Invocation of Laughter
TTITLE9=Faux Departs
TTITLE10=A Step Too Far
TTITLE11=Where the Waxwings used to dwell
EXTD=YEAR: 2014
EXTT0=
EXTT1=
EXTT2=
EXTT3=
EXTT4=
EXTT5=
EXTT6=
EXTT7=
EXTT8=
EXTT9=
EXTT10=
EXTT11=
PLAYORDER=
